<svg id="Layer_1" data-name="Layer 1" xmlns="http://www.w3.org/2000/svg" viewBox="0 0 510 295"><defs><style>.cls-1{fill:#f1f1f3;}.cls-2{fill:#a2a3a7;}.cls-3{fill:#a1a2a6;}.cls-4{fill:#676767;}.cls-5{fill:#87c057;}.cls-6{fill:#89c058;}.cls-7{fill:#c3f1ee;}.cls-8{fill:#9de6b7;}.cls-9{fill:#ecf6b9;}.cls-10{fill:#a5a5a8;}.cls-11{fill:#a5a4a9;}.cls-12{fill:#a3a2a7;}.cls-13{fill:#f1f1f2;}.cls-14{fill:#fcfcfd;}.cls-15{fill:#efe7a3;}.cls-16{fill:#fdf8f3;}.cls-17{fill:#f2e69f;}.cls-18{fill:#fbf8ee;}</style></defs><title>emptyArtboard 1</title><path class="cls-1" d="M178.86,272.7c1.63-2.47-.2-4-1.79-5.09-7.39-5-9.2-12.45-9.23-20.61-.07-26.06-.27-52.13.14-78.18.1-6.83-2-9.38-8.55-8.3,1.75-4.81,6-3.51,9.41-3.55q28.65-.28,57.31,0c6.46.06,12.49-1,18.1-4.25s11.66-4.28,18.11-4.26c33.78.1,67.56,0,101.34.06,12.15,0,13.3,1.15,13.32,13.1q.06,40.62,0,81.23c-.08,21.46-12,33.38-33.42,33.41q-76.87.12-153.75-.07C186,276.15,181.22,277.92,178.86,272.7Z"/><path class="cls-2" d="M178.86,272.7c2.36,2.18,5.32,1.37,8,1.38q79,.1,158,0c18.87,0,30-11.35,30-30.05,0-29-.12-57.9.13-86.84,0-5.31-1.54-6.65-6.71-6.62-36.81.22-73.63.17-110.44,0-4.71,0-8.64,1.63-12.42,4a33.54,33.54,0,0,1-18.6,4.77c-20-.27-40.07-.16-60.11-.08-2.43,0-5.16-1.06-7.24,1.24h0c-2,7.87.34,15.95-1.21,23.84-4.83,2.72-7.44,1.78-7.4-4.24.1-19.14-.2-38.29.24-57.42.34-15.28,14-30.35,29.24-32.13a238.12,238.12,0,0,1,53-.06,23.87,23.87,0,0,1,17.49,10.43c5.38,7.77,12.35,10.88,22,10.69,23.29-.45,46.6,0,69.9.08a56.35,56.35,0,0,1,15.83,2.15c15.28,4.5,24.64,16.69,24.7,32.56.12,33.15.17,66.3,0,99.45-.12,20.82-16.22,36.54-37,36.55q-79.33.06-158.67,0c-20.47,0-36.23-15.66-36.54-36.19-.11-7.7,0-15.41,0-23.11,0-2.72.13-5.35,3.84-5.32,3.26,0,3.3,2.4,3.7,4.83,1.28,7.9.48,15.84.68,23.76C159.44,259.86,165.81,268.42,178.86,272.7Z"/><path class="cls-3" d="M402.61,132.34c-.51-18.64-9-34-20.42-47.83-18.91-23-44-36.32-73-39.65-33-3.79-66.57-5.85-99.11,2.48-40.46,10.35-69.63,34.26-80.61,76.55a33,33,0,0,0-.53,5.48c-3.28,1.89-6.6,2.66-10,.37,1.24-19.43,9.58-36,22-50.31,26.09-30.06,59.93-44,99.25-45,18.16-.45,36.39-.94,54.5.12,44,2.55,80.53,19.74,105.07,57.87,7.74,12,13,25.24,12.84,40C409.22,135.07,405.89,135.11,402.61,132.34Z"/><path class="cls-4" d="M118.94,129.74c3.36.4,6.63-1.84,10-.37,7.38,1.89,10.6,7,10.67,14.28q.21,19.5,0,39c-.08,7.92-3.79,12.88-10.38,14.48-7,1.7-12-.85-16.27-8.36a8.43,8.43,0,0,1-3.15-6.72c-.28-12.35-.24-24.69,0-37,0-2.65.73-5.07,3-6.77C113.81,134.64,116.93,132.59,118.94,129.74Z"/><path class="cls-4" d="M402.61,132.34l10,.14,7,8.57c1.94,2,2.1,4.56,2.12,7.11q.19,18,0,36c0,2.56-.29,5.09-2.14,7.12-2.68,4.51-5.85,8.23-11.57,9-8.47,1.13-15.3-4.48-15.45-13.64-.24-13.68-.11-27.37,0-41.06C392.58,138.75,396,134.3,402.61,132.34Z"/><path class="cls-5" d="M419.59,191.32q0-25.14,0-50.28c7,.22,11.19,3.89,12.55,10.69,2,10.1,2.44,20.21-.38,30.25C430.07,188.1,426,191.25,419.59,191.32Z"/><path class="cls-6" d="M112.83,138.23a252.44,252.44,0,0,0,.17,50.53c-7.79-1-11.76-5.55-12.92-13.18a72.93,72.93,0,0,1,.5-26.31C102,142.65,105.7,138.52,112.83,138.23Z"/><path class="cls-7" d="M499.29,111.08c-.21,1.85-1.16,2.75-2.27,2.87-2.65.27-4.25,1.28-4.56,4.15-.15,1.4-2.19,2-2.6,1.34-2.23-3.71-6.95-4.57-9-8.12-.66-1.12,1.26-2.19,2.69-2.53a5.38,5.38,0,0,0,1.36-.26c1.74-.93,11.58-.43,13,.81A9.9,9.9,0,0,1,499.29,111.08Z"/><path class="cls-8" d="M100.24,247.39a2.81,2.81,0,0,1-2.68,2.7c-1.91.27-3.24.67-4.11,2.89-1.43,3.64-3.48,3.11-5.27,0s-13.91-5.7-.52-9.65c2.67-9.79,4.65-6.19,6.75.27.21.64,2,.82,3.08,1.13C98.92,245.08,100.07,245.7,100.24,247.39Z"/><path class="cls-9" d="M242.39,19.1c-4.16-1.28-5.17-5.61-8.29-7.59,3.77-2.16,4.68-9.11,8.29-8.58,3.22.48,4.69,6.78,8.71,8.87C248.77,14.93,245.4,16.74,242.39,19.1Z"/><path class="cls-1" d="M158.22,184.36c.69-7.93-1.31-16,1.21-23.84C158.84,168.46,160.91,176.53,158.22,184.36Z"/><path class="cls-10" d="M267.65,217.92c-5.28-.38-9.73,1.84-13.63,5.45-1.65,1.52-3.75,2.83-5.48.95s.66-3.25,1.82-4.52c9.05-9.88,26.58-9.92,35.63-.1,1.24,1.34,3,2.85,1.18,4.69-1.6,1.6-3.49.69-4.94-.67C278.17,219.91,273.54,217.59,267.65,217.92Z"/><path class="cls-11" d="M257,198c-.69,3.05-2.54,4.7-5.77,4.72s-5.08-1.54-5.23-4.95c-.16-3.8,2.17-5.73,5.37-5.82C254.86,191.89,256.07,195,257,198Z"/><path class="cls-12" d="M283.21,192.06c3.05.6,5.16,2,5.12,5.52s-1.67,5.18-5.12,5.16-5.06-1.75-5.1-5.2S280.14,192.6,283.21,192.06Z"/><path class="cls-13" d="M169.21,104.47c6.14-5.42,13.65-6.68,21.4-6.81,11.17-.18,22.35.1,33.53-.1,9.59-.17,17.21,3.33,22.64,11.28s13,10.85,22.16,10.89q37,.13,74,.19c9.82,0,19,1.77,25.8,9.81a28.79,28.79,0,0,1,3.61,5.11c3.36,6.46,2.77,7.48-4.34,7.49q-53.78,0-107.57,0c-6.69,0-13,1-18.56,4.8-5.91,4-12.39,4-19.29,4-19.06,0-38.15-1.19-57.2.7-2,.19-4.24.81-5.88-1.16,5-2.26,6.76-6,6.35-11.54-.46-5.95.1-12-.16-17.95S167,109.82,169.21,104.47Z"/><path class="cls-14" d="M169.21,104.47c.41.77,1.36,1.78,1.15,2.29-5,11.59-2.11,23.75-2.32,35.62-.11,6.63-1.82,9.45-8.49,8.29C159.86,134.66,154.07,117.37,169.21,104.47Z"/><path class="cls-15" d="M440.48,280.51c-.84,4.17-3.08,7.9-8.76,8-5.46.09-9.53-3.91-9.44-9,.06-4.12,5.41-9.84,9.32-10C435.26,269.37,440.56,275.43,440.48,280.51Z"/><path class="cls-16" d="M431.4,283.06c-2.38-.07-5,0-4.6-3.49.32-2.57,1.17-5.22,4.59-4.88,2.89.28,4.54,2.23,4.76,5.07C436.43,283.35,433.65,282.91,431.4,283.06Z"/><path class="cls-17" d="M19.69,73.61c5.51.13,9.91,4.29,9.31,9.1-.64,5.08-3.45,8.58-8.92,8.85C15,91.8,10.38,87.31,11,82.5,11.64,77.45,13.18,72.76,19.69,73.61Z"/><path class="cls-18" d="M24.84,82.5c-.55,3-2.2,5-5.42,5-3,.08-3.94-2.31-4-4.58a5.5,5.5,0,0,1,4.93-5.67C22.75,77.14,24.59,79.58,24.84,82.5Z"/></svg>